<?xml version="1.0" standalone="no"?>
<!DOCTYPE svg PUBLIC "-//W3C//DTD SVG 20010904//EN"
 "http://www.w3.org/TR/2001/REC-SVG-20010904/DTD/svg10.dtd">
<svg version="1.0" xmlns="http://www.w3.org/2000/svg"
 width="260.000000pt" height="260.000000pt" viewBox="0 0 260.000000 260.000000"
 preserveAspectRatio="xMidYMid meet">
<metadata>
Created by potrace 1.11, written by Peter Selinger 2001-2013
</metadata>
<g transform="translate(0.000000,260.000000) scale(0.100000,-0.100000)"
fill="#000000" stroke="none">
<path d="M2035 1920 c-88 -4 -173 -13 -190 -20 -32 -13 -33 -14 -140 -28 -38
-5 -88 -18 -110 -28 -22 -10 -47 -18 -55 -19 -135 -9 -247 -97 -205 -161 21
-33 41 -30 81 10 47 47 125 83 224 101 47 9 116 23 154 31 38 8 75 14 82 14
19 0 18 -26 -1 -34 -8 -3 -15 -14 -15 -25 0 -11 -4 -23 -10 -26 -14 -8 -51
-96 -45 -105 3 -5 1 -11 -5 -15 -5 -3 -10 -17 -10 -31 0 -14 -7 -27 -15 -30
-8 -4 -15 -12 -15 -20 0 -7 -20 -48 -45 -90 -25 -41 -45 -79 -45 -83 0 -3 -20
-47 -45 -96 -24 -50 -45 -102 -45 -117 0 -26 71 -128 89 -128 15 0 28 24 54
100 14 41 32 89 40 105 8 17 36 80 62 140 27 61 74 169 106 241 55 125 60 148
44 200 -6 20 -2 22 37 26 92 11 272 1 315 -17 40 -16 61 -44 49 -63 -10 -16
-142 -101 -211 -135 -39 -19 -100 -44 -137 -56 -91 -30 -130 -58 -146 -106 -8
-23 -9 -42 -3 -48 5 -5 75 -11 156 -13 155 -5 310 -31 375 -64 92 -47 114
-107 58 -158 -74 -67 -130 -112 -142 -112 -7 0 -23 -11 -36 -25 -13 -14 -31
-25 -41 -25 -10 0 -20 -4 -23 -8 -8 -13 -104 -57 -176 -82 -36 -12 -74 -25
-85 -30 -34 -13 -87 -28 -159 -46 -73 -17 -180 -14 -201 7 -13 14 29 48 104
85 31 15 63 33 71 40 20 16 173 79 266 109 62 20 82 23 126 15 49 -8 55 -7 76
16 31 35 29 79 -4 100 -25 17 -29 16 -107 -10 -75 -26 -298 -128 -422 -193
-86 -46 -218 -133 -257 -171 -34 -32 -38 -34 -38 -15 0 11 -7 37 -15 56 -16
39 -16 40 23 137 35 87 82 168 155 266 26 36 47 67 47 71 0 3 14 25 30 50 46
67 60 109 60 174 0 74 -20 99 -80 99 -51 0 -149 -45 -215 -100 -27 -23 -57
-47 -65 -53 -53 -44 -196 -185 -202 -199 -8 -21 -28 -24 -28 -5 0 6 10 28 21
47 24 38 47 96 59 150 16 64 -28 120 -93 120 -23 0 -85 -28 -127 -57 -14 -10
-43 -29 -63 -41 -20 -13 -37 -30 -37 -36 0 -7 -11 -18 -24 -24 -26 -12 -64
-46 -267 -244 -78 -76 -143 -138 -145 -138 -13 0 88 172 161 275 20 28 41 60
48 71 49 86 49 85 38 117 -19 52 -39 67 -90 67 -68 0 -249 -60 -293 -98 -9 -8
-21 -11 -26 -8 -5 3 -15 -1 -22 -9 -7 -8 -18 -15 -24 -15 -19 0 -208 -89 -228
-107 -11 -10 -18 -30 -18 -54 0 -33 4 -40 26 -45 18 -5 32 0 50 17 13 12 24
28 24 34 0 7 24 24 53 40 28 15 73 42 98 60 25 18 57 36 70 40 13 4 61 23 107
41 131 54 135 49 67 -82 -24 -48 -42 -91 -38 -97 3 -6 1 -7 -5 -3 -7 4 -22
-11 -38 -36 -15 -24 -44 -69 -64 -100 -21 -32 -52 -87 -70 -122 -17 -36 -36
-68 -41 -71 -5 -4 -9 -13 -9 -22 0 -9 -7 -21 -16 -27 -8 -7 -29 -43 -45 -81
-25 -59 -27 -72 -16 -94 36 -75 107 -51 192 64 30 40 71 91 90 112 19 21 35
46 35 56 0 10 8 17 19 17 11 0 22 9 26 19 3 11 12 22 20 25 8 3 15 9 15 14 0
11 126 135 191 189 53 44 212 153 244 168 12 6 29 15 36 22 9 7 20 8 28 3 11
-6 8 -18 -15 -57 -16 -26 -34 -59 -40 -73 -6 -14 -28 -46 -48 -72 -41 -55 -90
-157 -100 -211 -5 -29 -3 -40 14 -57 11 -11 25 -20 31 -20 21 0 80 33 93 52
40 57 272 298 287 298 4 0 16 11 26 24 21 27 165 146 177 146 5 0 25 14 46 30
36 28 60 38 60 24 0 -4 -10 -23 -22 -43 -13 -20 -21 -36 -18 -36 3 0 -1 -7 -8
-15 -28 -33 -101 -135 -102 -143 0 -4 -11 -25 -25 -47 -14 -22 -25 -46 -25
-55 0 -8 -7 -15 -15 -15 -8 0 -15 -7 -15 -16 0 -8 -12 -31 -26 -49 -40 -53
-63 -105 -71 -159 -6 -48 -7 -61 -4 -102 0 -9 22 -37 49 -61 39 -37 52 -44 79
-41 24 3 34 0 38 -13 12 -36 106 -81 153 -72 15 2 45 4 67 3 51 -1 170 18 215
35 19 7 50 16 68 19 18 3 64 19 102 36 37 16 77 30 88 30 11 0 25 7 33 16 7 8
20 13 29 11 9 -2 34 6 56 19 21 12 64 35 94 50 59 30 187 129 219 170 65 82
47 192 -47 282 -43 42 -85 62 -197 97 -140 43 -135 40 -100 55 211 89 300 164
300 253 0 31 -6 44 -29 62 -46 37 -126 72 -181 79 -27 4 -59 9 -70 10 -11 2
-92 0 -180 -4z"/>
</g>
</svg>
